<svg xmlns="http://www.w3.org/2000/svg" xmlns:xlink="http://www.w3.org/1999/xlink" width="500" zoomAndPan="magnify" viewBox="0 0 375 374.999991" height="500" preserveAspectRatio="xMidYMid meet" version="1.0"><defs><g/><clipPath id="01d64973c7"><path d="M 132.8125 93.785156 L 242.3125 93.785156 L 242.3125 213.035156 L 132.8125 213.035156 Z M 132.8125 93.785156 " clip-rule="nonzero"/></clipPath><clipPath id="63642ad8e5"><path d="M 179.445312 127.742188 C 179.160156 127.570312 178.871094 127.378906 178.582031 127.1875 L 152.546875 172.671875 L 154.8125 176.742188 L 220.3125 176.742188 L 222.578125 172.671875 L 196.542969 127.1875 L 196.335938 127.316406 L 196.542969 127.1875 L 195.296875 125.007812 C 195.042969 124.582031 194.929688 124.117188 194.929688 123.640625 L 194.929688 96.566406 C 194.929688 95.027344 196.175781 93.785156 197.707031 93.785156 L 204.859375 93.785156 C 206.410156 93.785156 207.652344 95.027344 207.652344 96.566406 C 207.652344 98.09375 206.410156 99.335938 204.859375 99.335938 L 200.5 99.335938 L 200.5 122.925781 L 201.316406 124.375 L 225.722656 167.011719 L 229.9375 159.460938 C 234.933594 150.476562 237.34375 143.195312 236.609375 137.1875 C 235.925781 131.464844 232.207031 126.664062 224.910156 122.273438 C 218.75 118.585938 211.371094 119.921875 204.941406 122.65625 L 204.492188 121.878906 L 204.492188 116.949219 C 211.882812 114.152344 220.34375 113.070312 227.785156 117.539062 C 236.660156 122.863281 241.242188 129 242.152344 136.550781 C 243.027344 143.800781 240.363281 152.132812 234.792969 162.148438 C 225.644531 178.554688 212.234375 202.703125 211.40625 204.195312 L 211.308594 204.355469 C 205.882812 213.304688 200.851562 214.449219 196.382812 211.765625 C 192.601562 209.492188 189.773438 204.054688 187.570312 198.839844 C 185.351562 204.054688 182.527344 209.492188 178.742188 211.765625 C 174.273438 214.449219 169.246094 213.304688 163.816406 204.355469 L 163.769531 204.261719 C 163.722656 204.179688 149.753906 179.0625 140.335938 162.148438 C 134.765625 152.132812 132.097656 143.800781 132.976562 136.550781 C 133.902344 129 138.46875 122.863281 147.34375 117.539062 C 154.78125 113.085938 163.242188 114.152344 170.632812 116.949219 L 170.632812 121.878906 L 170.1875 122.65625 L 170.363281 122.71875 C 163.898438 119.9375 156.441406 118.554688 150.214844 122.273438 C 142.921875 126.664062 139.203125 131.464844 138.515625 137.1875 C 137.78125 143.195312 140.191406 150.476562 145.203125 159.460938 L 149.402344 167.011719 L 173.8125 124.375 L 174.625 122.925781 L 174.625 99.335938 L 170.265625 99.335938 C 168.71875 99.335938 167.472656 98.09375 167.472656 96.566406 C 167.472656 95.027344 168.71875 93.785156 170.265625 93.785156 L 177.417969 93.785156 C 178.949219 93.785156 180.195312 95.027344 180.195312 96.566406 L 180.195312 123.640625 C 180.195312 124.117188 180.085938 124.582031 179.828125 125.007812 L 178.582031 127.1875 C 178.886719 127.378906 179.160156 127.570312 179.445312 127.742188 Z M 186.070312 100.445312 C 187.953125 100.445312 189.488281 101.957031 189.488281 103.832031 C 189.488281 105.726562 187.953125 107.234375 186.070312 107.234375 C 184.1875 107.234375 182.65625 105.726562 182.65625 103.832031 C 182.65625 101.957031 184.1875 100.445312 186.070312 100.445312 Z M 190.222656 95.566406 C 191.433594 95.566406 192.410156 96.550781 192.410156 97.761719 C 192.410156 98.96875 191.433594 99.953125 190.222656 99.953125 C 188.992188 99.953125 188.019531 98.96875 188.019531 97.761719 C 188.019531 96.550781 188.992188 95.566406 190.222656 95.566406 Z M 185.957031 126.933594 C 187.8125 126.933594 189.3125 128.425781 189.3125 130.273438 C 189.3125 132.117188 187.8125 133.609375 185.957031 133.609375 C 184.089844 133.609375 182.589844 132.117188 182.589844 130.273438 C 182.589844 128.425781 184.089844 126.933594 185.957031 126.933594 Z M 157.894531 182.289062 C 163.753906 192.796875 168.078125 200.585938 168.589844 201.511719 C 171.863281 206.914062 174.179688 208.027344 175.871094 207.011719 C 179.222656 204.992188 182.144531 197.582031 184.28125 192.097656 L 184.984375 190.351562 C 185.542969 188.933594 187.15625 188.234375 188.59375 188.792969 C 189.328125 189.09375 189.871094 189.667969 190.140625 190.351562 L 190.84375 192.097656 C 192.984375 197.582031 195.902344 204.992188 199.257812 207.011719 C 200.949219 208.027344 203.261719 206.914062 206.535156 201.511719 L 217.230469 182.289062 Z M 193.621094 135.757812 C 194.851562 135.757812 195.824219 136.742188 195.824219 137.949219 C 195.824219 139.160156 194.851562 140.144531 193.621094 140.144531 C 192.410156 140.144531 191.417969 139.160156 191.417969 137.949219 C 191.417969 136.742188 192.410156 135.757812 193.621094 135.757812 Z M 183.039062 140.320312 C 184.890625 140.320312 186.390625 141.8125 186.390625 143.65625 C 186.390625 145.5 184.890625 146.996094 183.039062 146.996094 C 181.1875 146.996094 179.683594 145.5 179.683594 143.65625 C 179.683594 141.8125 181.1875 140.320312 183.039062 140.320312 Z M 160.402344 167.789062 L 159.683594 169.046875 C 159.617188 169.269531 159.585938 169.507812 159.585938 169.761719 C 159.585938 171.304688 160.847656 172.558594 162.398438 172.558594 L 212.730469 172.558594 C 214.277344 172.558594 215.539062 171.304688 215.539062 169.761719 C 215.539062 169.507812 215.507812 169.269531 215.445312 169.046875 L 214.726562 167.789062 L 205.625 151.894531 C 197.164062 143.371094 191.164062 149.492188 183.453125 151.925781 C 175.742188 154.355469 172.070312 147.394531 172.070312 147.394531 L 166.453125 157.21875 Z M 160.402344 167.789062 " clip-rule="nonzero"/></clipPath><linearGradient x1="-24.490105" gradientTransform="matrix(0.0159635, 0, 0, 0.0158979, 132.816331, 93.785918)" y1="7478.485026" x2="6883.659795" gradientUnits="userSpaceOnUse" y2="22.672218" id="09046d3c0f"><stop stop-opacity="1" stop-color="rgb(0%, 28.999329%, 67.799377%)" offset="0"/><stop stop-opacity="1" stop-color="rgb(0%, 28.999329%, 67.799377%)" offset="0.125"/><stop stop-opacity="1" stop-color="rgb(0%, 29.013062%, 67.796326%)" offset="0.140625"/><stop stop-opacity="1" stop-color="rgb(0.00610352%, 29.191589%, 67.762756%)" offset="0.148438"/><stop stop-opacity="1" stop-color="rgb(0.0198364%, 29.524231%, 67.698669%)" offset="0.15625"/><stop stop-opacity="1" stop-color="rgb(0.0320435%, 29.855347%, 67.636108%)" offset="0.164062"/><stop stop-opacity="1" stop-color="rgb(0.0457764%, 30.187988%, 67.573547%)" offset="0.171875"/><stop stop-opacity="1" stop-color="rgb(0.0579834%, 30.52063%, 67.510986%)" offset="0.179688"/><stop stop-opacity="1" stop-color="rgb(0.0717163%, 30.851746%, 67.446899%)" offset="0.1875"/><stop stop-opacity="1" stop-color="rgb(0.0839233%, 31.184387%, 67.384338%)" offset="0.195312"/><stop stop-opacity="1" stop-color="rgb(0.0976562%, 31.515503%, 67.321777%)" offset="0.203125"/><stop stop-opacity="1" stop-color="rgb(0.109863%, 31.848145%, 67.259216%)" offset="0.210937"/><stop stop-opacity="1" stop-color="rgb(0.123596%, 32.180786%, 67.195129%)" offset="0.21875"/><stop stop-opacity="1" stop-color="rgb(0.137329%, 32.511902%, 67.132568%)" offset="0.226562"/><stop stop-opacity="1" stop-color="rgb(0.149536%, 32.844543%, 67.070007%)" offset="0.234375"/><stop stop-opacity="1" stop-color="rgb(0.163269%, 33.175659%, 67.007446%)" offset="0.242187"/><stop stop-opacity="1" stop-color="rgb(0.175476%, 33.508301%, 66.943359%)" offset="0.25"/><stop stop-opacity="1" stop-color="rgb(0.189209%, 33.840942%, 66.880798%)" offset="0.257812"/><stop stop-opacity="1" stop-color="rgb(0.201416%, 34.172058%, 66.818237%)" offset="0.265625"/><stop stop-opacity="1" stop-color="rgb(0.215149%, 34.5047%, 66.755676%)" offset="0.273437"/><stop stop-opacity="1" stop-color="rgb(0.227356%, 34.835815%, 66.691589%)" offset="0.28125"/><stop stop-opacity="1" stop-color="rgb(0.241089%, 35.168457%, 66.629028%)" offset="0.289062"/><stop stop-opacity="1" stop-color="rgb(0.253296%, 35.501099%, 66.566467%)" offset="0.296875"/><stop stop-opacity="1" stop-color="rgb(0.267029%, 35.832214%, 66.503906%)" offset="0.304688"/><stop stop-opacity="1" stop-color="rgb(0.279236%, 36.164856%, 66.439819%)" offset="0.3125"/><stop stop-opacity="1" stop-color="rgb(0.292969%, 36.495972%, 66.377258%)" offset="0.320312"/><stop stop-opacity="1" stop-color="rgb(0.305176%, 36.828613%, 66.314697%)" offset="0.328125"/><stop stop-opacity="1" stop-color="rgb(0.318909%, 37.161255%, 66.252136%)" offset="0.335938"/><stop stop-opacity="1" stop-color="rgb(0.332642%, 37.492371%, 66.188049%)" offset="0.34375"/><stop stop-opacity="1" stop-color="rgb(0.344849%, 37.825012%, 66.125488%)" offset="0.351562"/><stop stop-opacity="1" stop-color="rgb(0.358582%, 38.156128%, 66.062927%)" offset="0.359375"/><stop stop-opacity="1" stop-color="rgb(0.370789%, 38.48877%, 66.000366%)" offset="0.367188"/><stop stop-opacity="1" stop-color="rgb(0.384521%, 38.821411%, 65.936279%)" offset="0.375"/><stop stop-opacity="1" stop-color="rgb(0.396729%, 39.152527%, 65.873718%)" offset="0.382812"/><stop stop-opacity="1" stop-color="rgb(0.410461%, 39.485168%, 65.811157%)" offset="0.390625"/><stop stop-opacity="1" stop-color="rgb(0.422668%, 39.816284%, 65.748596%)" offset="0.398438"/><stop stop-opacity="1" stop-color="rgb(0.436401%, 40.148926%, 65.684509%)" offset="0.40625"/><stop stop-opacity="1" stop-color="rgb(0.448608%, 40.481567%, 65.621948%)" offset="0.414063"/><stop stop-opacity="1" stop-color="rgb(0.462341%, 40.812683%, 65.559387%)" offset="0.421875"/><stop stop-opacity="1" stop-color="rgb(0.474548%, 41.145325%, 65.496826%)" offset="0.429688"/><stop stop-opacity="1" stop-color="rgb(0.488281%, 41.47644%, 65.434265%)" offset="0.4375"/><stop stop-opacity="1" stop-color="rgb(0.500488%, 41.809082%, 65.370178%)" offset="0.445312"/><stop stop-opacity="1" stop-color="rgb(0.514221%, 42.141724%, 65.307617%)" offset="0.453125"/><stop stop-opacity="1" stop-color="rgb(0.527954%, 42.472839%, 65.245056%)" offset="0.458667"/><stop stop-opacity="1" stop-color="rgb(0.534058%, 42.63916%, 65.214539%)" offset="0.460938"/><stop stop-opacity="1" stop-color="rgb(0.540161%, 42.805481%, 65.182495%)" offset="0.46875"/><stop stop-opacity="1" stop-color="rgb(0.553894%, 43.136597%, 65.118408%)" offset="0.476562"/><stop stop-opacity="1" stop-color="rgb(0.566101%, 43.469238%, 65.055847%)" offset="0.484375"/><stop stop-opacity="1" stop-color="rgb(0.579834%, 43.80188%, 64.993286%)" offset="0.492188"/><stop stop-opacity="1" stop-color="rgb(0.592041%, 44.132996%, 64.930725%)" offset="0.5"/><stop stop-opacity="1" stop-color="rgb(0.605774%, 44.465637%, 64.866638%)" offset="0.507812"/><stop stop-opacity="1" stop-color="rgb(0.617981%, 44.796753%, 64.804077%)" offset="0.515625"/><stop stop-opacity="1" stop-color="rgb(0.631714%, 45.129395%, 64.741516%)" offset="0.523437"/><stop stop-opacity="1" stop-color="rgb(0.643921%, 45.462036%, 64.678955%)" offset="0.53125"/><stop stop-opacity="1" stop-color="rgb(0.657654%, 45.793152%, 64.614868%)" offset="0.539062"/><stop stop-opacity="1" stop-color="rgb(0.669861%, 46.125793%, 64.552307%)" offset="0.541333"/><stop stop-opacity="1" stop-color="rgb(0.67749%, 46.292114%, 64.52179%)" offset="0.546875"/><stop stop-opacity="1" stop-color="rgb(0.683594%, 46.456909%, 64.489746%)" offset="0.554688"/><stop stop-opacity="1" stop-color="rgb(0.695801%, 46.789551%, 64.427185%)" offset="0.5625"/><stop stop-opacity="1" stop-color="rgb(0.709534%, 47.122192%, 64.363098%)" offset="0.570312"/><stop stop-opacity="1" stop-color="rgb(0.723267%, 47.453308%, 64.300537%)" offset="0.578125"/><stop stop-opacity="1" stop-color="rgb(0.735474%, 47.78595%, 64.237976%)" offset="0.585938"/><stop stop-opacity="1" stop-color="rgb(0.749207%, 48.117065%, 64.175415%)" offset="0.59375"/><stop stop-opacity="1" stop-color="rgb(0.761414%, 48.449707%, 64.111328%)" offset="0.601562"/><stop stop-opacity="1" stop-color="rgb(0.775146%, 48.782349%, 64.048767%)" offset="0.609375"/><stop stop-opacity="1" stop-color="rgb(0.787354%, 49.113464%, 63.986206%)" offset="0.617188"/><stop stop-opacity="1" stop-color="rgb(0.801086%, 49.446106%, 63.923645%)" offset="0.625"/><stop stop-opacity="1" stop-color="rgb(0.813293%, 49.777222%, 63.859558%)" offset="0.632812"/><stop stop-opacity="1" stop-color="rgb(0.827026%, 50.109863%, 63.796997%)" offset="0.640625"/><stop stop-opacity="1" stop-color="rgb(0.839233%, 50.442505%, 63.734436%)" offset="0.648438"/><stop stop-opacity="1" stop-color="rgb(0.852966%, 50.773621%, 63.671875%)" offset="0.65625"/><stop stop-opacity="1" stop-color="rgb(0.865173%, 51.106262%, 63.607788%)" offset="0.664062"/><stop stop-opacity="1" stop-color="rgb(0.878906%, 51.437378%, 63.545227%)" offset="0.671875"/><stop stop-opacity="1" stop-color="rgb(0.891113%, 51.77002%, 63.482666%)" offset="0.679688"/><stop stop-opacity="1" stop-color="rgb(0.904846%, 52.102661%, 63.420105%)" offset="0.6875"/><stop stop-opacity="1" stop-color="rgb(0.918579%, 52.433777%, 63.356018%)" offset="0.695312"/><stop stop-opacity="1" stop-color="rgb(0.930786%, 52.766418%, 63.293457%)" offset="0.703125"/><stop stop-opacity="1" stop-color="rgb(0.944519%, 53.097534%, 63.230896%)" offset="0.710938"/><stop stop-opacity="1" stop-color="rgb(0.956726%, 53.430176%, 63.168335%)" offset="0.71875"/><stop stop-opacity="1" stop-color="rgb(0.970459%, 53.762817%, 63.104248%)" offset="0.726562"/><stop stop-opacity="1" stop-color="rgb(0.982666%, 54.093933%, 63.041687%)" offset="0.734375"/><stop stop-opacity="1" stop-color="rgb(0.996399%, 54.426575%, 62.979126%)" offset="0.742188"/><stop stop-opacity="1" stop-color="rgb(1.008606%, 54.75769%, 62.916565%)" offset="0.75"/><stop stop-opacity="1" stop-color="rgb(1.022339%, 55.090332%, 62.852478%)" offset="0.757812"/><stop stop-opacity="1" stop-color="rgb(1.034546%, 55.422974%, 62.789917%)" offset="0.765625"/><stop stop-opacity="1" stop-color="rgb(1.048279%, 55.754089%, 62.727356%)" offset="0.773438"/><stop stop-opacity="1" stop-color="rgb(1.060486%, 56.086731%, 62.664795%)" offset="0.78125"/><stop stop-opacity="1" stop-color="rgb(1.074219%, 56.417847%, 62.602234%)" offset="0.789063"/><stop stop-opacity="1" stop-color="rgb(1.086426%, 56.750488%, 62.538147%)" offset="0.796875"/><stop stop-opacity="1" stop-color="rgb(1.100159%, 57.08313%, 62.475586%)" offset="0.804688"/><stop stop-opacity="1" stop-color="rgb(1.113892%, 57.414246%, 62.413025%)" offset="0.8125"/><stop stop-opacity="1" stop-color="rgb(1.126099%, 57.746887%, 62.350464%)" offset="0.820312"/><stop stop-opacity="1" stop-color="rgb(1.139832%, 58.078003%, 62.286377%)" offset="0.828125"/><stop stop-opacity="1" stop-color="rgb(1.152039%, 58.410645%, 62.223816%)" offset="0.835937"/><stop stop-opacity="1" stop-color="rgb(1.165771%, 58.743286%, 62.161255%)" offset="0.84375"/><stop stop-opacity="1" stop-color="rgb(1.177979%, 59.074402%, 62.098694%)" offset="0.851562"/><stop stop-opacity="1" stop-color="rgb(1.191711%, 59.407043%, 62.034607%)" offset="0.859375"/><stop stop-opacity="1" stop-color="rgb(1.197815%, 59.585571%, 62.001038%)" offset="0.875"/><stop stop-opacity="1" stop-color="rgb(1.199341%, 59.599304%, 61.999512%)" offset="1"/></linearGradient></defs><rect x="-37.5" width="450" fill="#ffffff" y="-37.499999" height="449.999989" fill-opacity="1"/><rect x="-37.5" width="450" fill="#ffffff" y="-37.499999" height="449.999989" fill-opacity="1"/><rect x="-37.5" width="450" fill="#ffffff" y="-37.499999" height="449.999989" fill-opacity="1"/><g clip-path="url(#01d64973c7)"><g clip-path="url(#63642ad8e5)"><path fill="url(#09046d3c0f)" d="M 132.8125 93.785156 L 132.8125 213.035156 L 242.3125 213.035156 L 242.3125 93.785156 Z M 132.8125 93.785156 " fill-rule="nonzero"/></g></g><path fill="#000000" d="M 166.453125 157.21875 L 160.402344 167.789062 L 159.683594 169.046875 C 159.617188 169.269531 159.585938 169.507812 159.585938 169.761719 C 159.585938 171.304688 160.847656 172.558594 162.398438 172.558594 L 212.730469 172.558594 C 214.277344 172.558594 215.539062 171.304688 215.539062 169.761719 C 215.539062 169.507812 215.507812 169.269531 215.445312 169.046875 L 214.726562 167.789062 L 205.625 151.894531 C 197.164062 143.371094 191.164062 149.492188 183.453125 151.925781 C 175.742188 154.355469 172.070312 147.394531 172.070312 147.394531 Z M 166.453125 157.21875 " fill-opacity="1" fill-rule="evenodd"/><path fill="#000000" d="M 188.019531 97.761719 C 188.019531 98.96875 188.992188 99.953125 190.222656 99.953125 C 191.433594 99.953125 192.410156 98.96875 192.410156 97.761719 C 192.410156 96.550781 191.433594 95.566406 190.222656 95.566406 C 188.992188 95.566406 188.019531 96.550781 188.019531 97.761719 Z M 188.019531 97.761719 " fill-opacity="1" fill-rule="evenodd"/><path fill="#000000" d="M 189.488281 103.832031 C 189.488281 101.957031 187.953125 100.445312 186.070312 100.445312 C 184.1875 100.445312 182.65625 101.957031 182.65625 103.832031 C 182.65625 105.726562 184.1875 107.234375 186.070312 107.234375 C 187.953125 107.234375 189.488281 105.726562 189.488281 103.832031 Z M 189.488281 103.832031 " fill-opacity="1" fill-rule="evenodd"/><path fill="#000000" d="M 189.3125 130.273438 C 189.3125 128.425781 187.8125 126.933594 185.957031 126.933594 C 184.089844 126.933594 182.589844 128.425781 182.589844 130.273438 C 182.589844 132.117188 184.089844 133.609375 185.957031 133.609375 C 187.8125 133.609375 189.3125 132.117188 189.3125 130.273438 Z M 189.3125 130.273438 " fill-opacity="1" fill-rule="evenodd"/><path fill="#000000" d="M 193.621094 135.757812 C 192.410156 135.757812 191.417969 136.742188 191.417969 137.949219 C 191.417969 139.160156 192.410156 140.144531 193.621094 140.144531 C 194.851562 140.144531 195.824219 139.160156 195.824219 137.949219 C 195.824219 136.742188 194.851562 135.757812 193.621094 135.757812 Z M 193.621094 135.757812 " fill-opacity="1" fill-rule="evenodd"/><path fill="#000000" d="M 186.390625 143.65625 C 186.390625 141.8125 184.890625 140.320312 183.039062 140.320312 C 181.1875 140.320312 179.683594 141.8125 179.683594 143.65625 C 179.683594 145.5 181.1875 146.996094 183.039062 146.996094 C 184.890625 146.996094 186.390625 145.5 186.390625 143.65625 Z M 186.390625 143.65625 " fill-opacity="1" fill-rule="evenodd"/><g fill="#000000" fill-opacity="1"><g transform="translate(105.21394, 249.817847)"><g><path d="M 12.140625 0 L 12.140625 -8.84375 C 12.140625 -11.019531 11.492188 -12.109375 10.203125 -12.109375 C 9.285156 -12.109375 8.609375 -11.722656 8.171875 -10.953125 C 7.742188 -10.179688 7.53125 -8.90625 7.53125 -7.125 L 7.53125 0 L 1.9375 0 L 1.9375 -22.265625 L 7.53125 -22.265625 L 7.53125 -19.109375 C 7.53125 -17.671875 7.453125 -16.039062 7.296875 -14.21875 L 7.5625 -14.21875 C 8.09375 -15.050781 8.722656 -15.640625 9.453125 -15.984375 C 10.191406 -16.328125 11.046875 -16.5 12.015625 -16.5 C 13.828125 -16.5 15.238281 -15.976562 16.25 -14.9375 C 17.257812 -13.894531 17.765625 -12.429688 17.765625 -10.546875 L 17.765625 0 Z M 12.140625 0 "/></g></g></g><g fill="#000000" fill-opacity="1"><g transform="translate(124.853477, 249.817847)"><g><path d="M 9.765625 0.28125 C 7.054688 0.28125 4.957031 -0.429688 3.46875 -1.859375 C 1.976562 -3.296875 1.234375 -5.34375 1.234375 -8 C 1.234375 -10.738281 1.921875 -12.835938 3.296875 -14.296875 C 4.679688 -15.765625 6.660156 -16.5 9.234375 -16.5 C 11.671875 -16.5 13.554688 -15.863281 14.890625 -14.59375 C 16.222656 -13.320312 16.890625 -11.488281 16.890625 -9.09375 L 16.890625 -6.59375 L 6.890625 -6.59375 C 6.921875 -5.6875 7.25 -4.972656 7.875 -4.453125 C 8.5 -3.941406 9.351562 -3.6875 10.4375 -3.6875 C 11.414062 -3.6875 12.316406 -3.78125 13.140625 -3.96875 C 13.972656 -4.15625 14.867188 -4.472656 15.828125 -4.921875 L 15.828125 -0.90625 C 14.953125 -0.457031 14.046875 -0.148438 13.109375 0.015625 C 12.171875 0.191406 11.054688 0.28125 9.765625 0.28125 Z M 9.4375 -12.703125 C 8.769531 -12.703125 8.210938 -12.492188 7.765625 -12.078125 C 7.328125 -11.660156 7.070312 -11.007812 7 -10.125 L 11.8125 -10.125 C 11.789062 -10.90625 11.566406 -11.53125 11.140625 -12 C 10.710938 -12.46875 10.144531 -12.703125 9.4375 -12.703125 Z M 9.4375 -12.703125 "/></g></g></g><g fill="#000000" fill-opacity="1"><g transform="translate(142.975673, 249.817847)"><g><path d="M 12.515625 0 L 11.4375 -2.140625 L 11.328125 -2.140625 C 10.566406 -1.210938 9.796875 -0.578125 9.015625 -0.234375 C 8.234375 0.109375 7.222656 0.28125 5.984375 0.28125 C 4.453125 0.28125 3.25 -0.175781 2.375 -1.09375 C 1.5 -2.007812 1.0625 -3.296875 1.0625 -4.953125 C 1.0625 -6.679688 1.660156 -7.96875 2.859375 -8.8125 C 4.066406 -9.65625 5.8125 -10.128906 8.09375 -10.234375 L 10.796875 -10.3125 L 10.796875 -10.546875 C 10.796875 -11.878906 10.132812 -12.546875 8.8125 -12.546875 C 7.632812 -12.546875 6.132812 -12.144531 4.3125 -11.34375 L 2.6875 -15.046875 C 4.582031 -16.015625 6.96875 -16.5 9.84375 -16.5 C 11.925781 -16.5 13.535156 -15.984375 14.671875 -14.953125 C 15.816406 -13.921875 16.390625 -12.484375 16.390625 -10.640625 L 16.390625 0 Z M 8.359375 -3.671875 C 9.035156 -3.671875 9.613281 -3.882812 10.09375 -4.3125 C 10.582031 -4.738281 10.828125 -5.296875 10.828125 -5.984375 L 10.828125 -7.25 L 9.53125 -7.1875 C 7.6875 -7.113281 6.765625 -6.4375 6.765625 -5.15625 C 6.765625 -4.164062 7.296875 -3.671875 8.359375 -3.671875 Z M 8.359375 -3.671875 "/></g></g></g><g fill="#000000" fill-opacity="1"><g transform="translate(161.241014, 249.817847)"><g><path d="M 7.53125 0 L 1.9375 0 L 1.9375 -22.265625 L 7.53125 -22.265625 Z M 7.53125 0 "/></g></g></g><g fill="#000000" fill-opacity="1"><g transform="translate(170.717234, 249.817847)"><g><path d="M 9.875 -4.140625 C 10.625 -4.140625 11.523438 -4.320312 12.578125 -4.6875 L 12.578125 -0.609375 C 11.828125 -0.285156 11.109375 -0.0546875 10.421875 0.078125 C 9.742188 0.210938 8.945312 0.28125 8.03125 0.28125 C 6.144531 0.28125 4.785156 -0.175781 3.953125 -1.09375 C 3.128906 -2.007812 2.71875 -3.425781 2.71875 -5.34375 L 2.71875 -12.015625 L 0.765625 -12.015625 L 0.765625 -14.296875 L 3.25 -16.0625 L 4.6875 -19.46875 L 8.359375 -19.46875 L 8.359375 -16.21875 L 12.34375 -16.21875 L 12.34375 -12.015625 L 8.359375 -12.015625 L 8.359375 -5.703125 C 8.359375 -4.660156 8.863281 -4.140625 9.875 -4.140625 Z M 9.875 -4.140625 "/></g></g></g><g fill="#000000" fill-opacity="1"><g transform="translate(184.201522, 249.817847)"><g><path d="M 12.140625 0 L 12.140625 -8.84375 C 12.140625 -11.019531 11.492188 -12.109375 10.203125 -12.109375 C 9.285156 -12.109375 8.609375 -11.722656 8.171875 -10.953125 C 7.742188 -10.179688 7.53125 -8.90625 7.53125 -7.125 L 7.53125 0 L 1.9375 0 L 1.9375 -22.265625 L 7.53125 -22.265625 L 7.53125 -19.109375 C 7.53125 -17.671875 7.453125 -16.039062 7.296875 -14.21875 L 7.5625 -14.21875 C 8.09375 -15.050781 8.722656 -15.640625 9.453125 -15.984375 C 10.191406 -16.328125 11.046875 -16.5 12.015625 -16.5 C 13.828125 -16.5 15.238281 -15.976562 16.25 -14.9375 C 17.257812 -13.894531 17.765625 -12.429688 17.765625 -10.546875 L 17.765625 0 Z M 12.140625 0 "/></g></g></g><g fill="#000000" fill-opacity="1"><g transform="translate(203.841059, 249.817847)"><g><path d="M 9.3125 0.28125 C 6.664062 0.28125 4.65625 -0.429688 3.28125 -1.859375 C 1.914062 -3.285156 1.234375 -5.34375 1.234375 -8.03125 C 1.234375 -10.71875 1.972656 -12.800781 3.453125 -14.28125 C 4.929688 -15.757812 7.035156 -16.5 9.765625 -16.5 C 11.640625 -16.5 13.410156 -16.085938 15.078125 -15.265625 L 13.421875 -11.140625 C 12.742188 -11.429688 12.117188 -11.664062 11.546875 -11.84375 C 10.972656 -12.019531 10.378906 -12.109375 9.765625 -12.109375 C 8.859375 -12.109375 8.15625 -11.753906 7.65625 -11.046875 C 7.15625 -10.335938 6.90625 -9.34375 6.90625 -8.0625 C 6.90625 -5.46875 7.867188 -4.171875 9.796875 -4.171875 C 11.429688 -4.171875 13.003906 -4.644531 14.515625 -5.59375 L 14.515625 -1.140625 C 13.078125 -0.191406 11.34375 0.28125 9.3125 0.28125 Z M 9.3125 0.28125 "/></g></g></g><g fill="#000000" fill-opacity="1"><g transform="translate(219.644301, 249.817847)"><g><path d="M 12.515625 0 L 11.4375 -2.140625 L 11.328125 -2.140625 C 10.566406 -1.210938 9.796875 -0.578125 9.015625 -0.234375 C 8.234375 0.109375 7.222656 0.28125 5.984375 0.28125 C 4.453125 0.28125 3.25 -0.175781 2.375 -1.09375 C 1.5 -2.007812 1.0625 -3.296875 1.0625 -4.953125 C 1.0625 -6.679688 1.660156 -7.96875 2.859375 -8.8125 C 4.066406 -9.65625 5.8125 -10.128906 8.09375 -10.234375 L 10.796875 -10.3125 L 10.796875 -10.546875 C 10.796875 -11.878906 10.132812 -12.546875 8.8125 -12.546875 C 7.632812 -12.546875 6.132812 -12.144531 4.3125 -11.34375 L 2.6875 -15.046875 C 4.582031 -16.015625 6.96875 -16.5 9.84375 -16.5 C 11.925781 -16.5 13.535156 -15.984375 14.671875 -14.953125 C 15.816406 -13.921875 16.390625 -12.484375 16.390625 -10.640625 L 16.390625 0 Z M 8.359375 -3.671875 C 9.035156 -3.671875 9.613281 -3.882812 10.09375 -4.3125 C 10.582031 -4.738281 10.828125 -5.296875 10.828125 -5.984375 L 10.828125 -7.25 L 9.53125 -7.1875 C 7.6875 -7.113281 6.765625 -6.4375 6.765625 -5.15625 C 6.765625 -4.164062 7.296875 -3.671875 8.359375 -3.671875 Z M 8.359375 -3.671875 "/></g></g></g><g fill="#000000" fill-opacity="1"><g transform="translate(237.909643, 249.817847)"><g><path d="M 11.71875 -16.5 C 12.207031 -16.5 12.671875 -16.460938 13.109375 -16.390625 L 13.421875 -16.328125 L 12.921875 -11.046875 C 12.460938 -11.160156 11.828125 -11.21875 11.015625 -11.21875 C 9.796875 -11.21875 8.910156 -10.9375 8.359375 -10.375 C 7.804688 -9.820312 7.53125 -9.019531 7.53125 -7.96875 L 7.53125 0 L 1.9375 0 L 1.9375 -16.21875 L 6.09375 -16.21875 L 6.96875 -13.625 L 7.25 -13.625 C 7.707031 -14.476562 8.351562 -15.171875 9.1875 -15.703125 C 10.03125 -16.234375 10.875 -16.5 11.71875 -16.5 Z M 11.71875 -16.5 "/></g></g></g><g fill="#000000" fill-opacity="1"><g transform="translate(251.665907, 249.817847)"><g><path d="M 9.765625 0.28125 C 7.054688 0.28125 4.957031 -0.429688 3.46875 -1.859375 C 1.976562 -3.296875 1.234375 -5.34375 1.234375 -8 C 1.234375 -10.738281 1.921875 -12.835938 3.296875 -14.296875 C 4.679688 -15.765625 6.660156 -16.5 9.234375 -16.5 C 11.671875 -16.5 13.554688 -15.863281 14.890625 -14.59375 C 16.222656 -13.320312 16.890625 -11.488281 16.890625 -9.09375 L 16.890625 -6.59375 L 6.890625 -6.59375 C 6.921875 -5.6875 7.25 -4.972656 7.875 -4.453125 C 8.5 -3.941406 9.351562 -3.6875 10.4375 -3.6875 C 11.414062 -3.6875 12.316406 -3.78125 13.140625 -3.96875 C 13.972656 -4.15625 14.867188 -4.472656 15.828125 -4.921875 L 15.828125 -0.90625 C 14.953125 -0.457031 14.046875 -0.148438 13.109375 0.015625 C 12.171875 0.191406 11.054688 0.28125 9.765625 0.28125 Z M 9.4375 -12.703125 C 8.769531 -12.703125 8.210938 -12.492188 7.765625 -12.078125 C 7.328125 -11.660156 7.070312 -11.007812 7 -10.125 L 11.8125 -10.125 C 11.789062 -10.90625 11.566406 -11.53125 11.140625 -12 C 10.710938 -12.46875 10.144531 -12.703125 9.4375 -12.703125 Z M 9.4375 -12.703125 "/></g></g></g><g fill="#000000" fill-opacity="1"><g transform="translate(146.254836, 277.12439)"><g><path d="M 2.828125 0 L 1.453125 0 L 1.453125 -12.890625 L 2.828125 -12.890625 Z M 2.828125 0 "/></g></g></g><g fill="#000000" fill-opacity="1"><g transform="translate(150.547809, 277.12439)"><g><path d="M 7.046875 0 L 6.765625 -1.296875 L 6.703125 -1.296875 C 6.253906 -0.722656 5.800781 -0.332031 5.34375 -0.125 C 4.894531 0.0703125 4.332031 0.171875 3.65625 0.171875 C 2.757812 0.171875 2.054688 -0.0546875 1.546875 -0.515625 C 1.035156 -0.984375 0.78125 -1.648438 0.78125 -2.515625 C 0.78125 -4.347656 2.242188 -5.304688 5.171875 -5.390625 L 6.71875 -5.4375 L 6.71875 -6 C 6.71875 -6.71875 6.5625 -7.242188 6.25 -7.578125 C 5.945312 -7.921875 5.457031 -8.09375 4.78125 -8.09375 C 4.03125 -8.09375 3.175781 -7.863281 2.21875 -7.40625 L 1.796875 -8.453125 C 2.242188 -8.691406 2.734375 -8.878906 3.265625 -9.015625 C 3.796875 -9.160156 4.332031 -9.234375 4.875 -9.234375 C 5.957031 -9.234375 6.757812 -8.988281 7.28125 -8.5 C 7.800781 -8.019531 8.0625 -7.253906 8.0625 -6.203125 L 8.0625 0 Z M 3.9375 -0.96875 C 4.789062 -0.96875 5.460938 -1.203125 5.953125 -1.671875 C 6.441406 -2.140625 6.6875 -2.796875 6.6875 -3.640625 L 6.6875 -4.46875 L 5.3125 -4.40625 C 4.21875 -4.363281 3.425781 -4.191406 2.9375 -3.890625 C 2.457031 -3.597656 2.21875 -3.132812 2.21875 -2.5 C 2.21875 -2 2.367188 -1.617188 2.671875 -1.359375 C 2.972656 -1.097656 3.394531 -0.96875 3.9375 -0.96875 Z M 3.9375 -0.96875 "/></g></g></g><g fill="#000000" fill-opacity="1"><g transform="translate(159.987381, 277.12439)"><g><path d="M 5.6875 -9.234375 C 6.875 -9.234375 7.796875 -8.820312 8.453125 -8 C 9.117188 -7.1875 9.453125 -6.035156 9.453125 -4.546875 C 9.453125 -3.054688 9.117188 -1.894531 8.453125 -1.0625 C 7.785156 -0.238281 6.863281 0.171875 5.6875 0.171875 C 5.09375 0.171875 4.550781 0.0625 4.0625 -0.15625 C 3.570312 -0.375 3.160156 -0.710938 2.828125 -1.171875 L 2.734375 -1.171875 L 2.4375 0 L 1.453125 0 L 1.453125 -12.890625 L 2.828125 -12.890625 L 2.828125 -9.765625 C 2.828125 -9.054688 2.804688 -8.425781 2.765625 -7.875 L 2.828125 -7.875 C 3.472656 -8.78125 4.425781 -9.234375 5.6875 -9.234375 Z M 5.484375 -8.078125 C 4.546875 -8.078125 3.867188 -7.804688 3.453125 -7.265625 C 3.035156 -6.734375 2.828125 -5.828125 2.828125 -4.546875 C 2.828125 -3.273438 3.039062 -2.363281 3.46875 -1.8125 C 3.894531 -1.257812 4.578125 -0.984375 5.515625 -0.984375 C 6.359375 -0.984375 6.988281 -1.289062 7.40625 -1.90625 C 7.820312 -2.519531 8.03125 -3.40625 8.03125 -4.5625 C 8.03125 -5.75 7.820312 -6.628906 7.40625 -7.203125 C 6.988281 -7.785156 6.347656 -8.078125 5.484375 -8.078125 Z M 5.484375 -8.078125 "/></g></g></g><g fill="#000000" fill-opacity="1"><g transform="translate(170.388314, 277.12439)"><g><path d="M 9.296875 -4.546875 C 9.296875 -3.066406 8.921875 -1.910156 8.171875 -1.078125 C 7.429688 -0.242188 6.40625 0.171875 5.09375 0.171875 C 4.28125 0.171875 3.554688 -0.0195312 2.921875 -0.40625 C 2.296875 -0.789062 1.8125 -1.335938 1.46875 -2.046875 C 1.125 -2.753906 0.953125 -3.585938 0.953125 -4.546875 C 0.953125 -6.023438 1.320312 -7.175781 2.0625 -8 C 2.800781 -8.832031 3.828125 -9.25 5.140625 -9.25 C 6.410156 -9.25 7.421875 -8.828125 8.171875 -7.984375 C 8.921875 -7.140625 9.296875 -5.992188 9.296875 -4.546875 Z M 2.375 -4.546875 C 2.375 -3.390625 2.601562 -2.503906 3.0625 -1.890625 C 3.53125 -1.285156 4.21875 -0.984375 5.125 -0.984375 C 6.019531 -0.984375 6.703125 -1.285156 7.171875 -1.890625 C 7.640625 -2.492188 7.875 -3.378906 7.875 -4.546875 C 7.875 -5.703125 7.640625 -6.578125 7.171875 -7.171875 C 6.703125 -7.773438 6.015625 -8.078125 5.109375 -8.078125 C 4.203125 -8.078125 3.519531 -7.78125 3.0625 -7.1875 C 2.601562 -6.601562 2.375 -5.722656 2.375 -4.546875 Z M 2.375 -4.546875 "/></g></g></g><g fill="#000000" fill-opacity="1"><g transform="translate(180.64007, 277.12439)"><g><path d="M 5.59375 -9.25 C 6 -9.25 6.363281 -9.210938 6.6875 -9.140625 L 6.5 -7.875 C 6.125 -7.957031 5.789062 -8 5.5 -8 C 4.769531 -8 4.140625 -7.695312 3.609375 -7.09375 C 3.085938 -6.5 2.828125 -5.757812 2.828125 -4.875 L 2.828125 0 L 1.453125 0 L 1.453125 -9.078125 L 2.59375 -9.078125 L 2.75 -7.40625 L 2.8125 -7.40625 C 3.15625 -7.988281 3.5625 -8.441406 4.03125 -8.765625 C 4.507812 -9.085938 5.03125 -9.25 5.59375 -9.25 Z M 5.59375 -9.25 "/></g></g></g><g fill="#000000" fill-opacity="1"><g transform="translate(187.568497, 277.12439)"><g><path d="M 7.046875 0 L 6.765625 -1.296875 L 6.703125 -1.296875 C 6.253906 -0.722656 5.800781 -0.332031 5.34375 -0.125 C 4.894531 0.0703125 4.332031 0.171875 3.65625 0.171875 C 2.757812 0.171875 2.054688 -0.0546875 1.546875 -0.515625 C 1.035156 -0.984375 0.78125 -1.648438 0.78125 -2.515625 C 0.78125 -4.347656 2.242188 -5.304688 5.171875 -5.390625 L 6.71875 -5.4375 L 6.71875 -6 C 6.71875 -6.71875 6.5625 -7.242188 6.25 -7.578125 C 5.945312 -7.921875 5.457031 -8.09375 4.78125 -8.09375 C 4.03125 -8.09375 3.175781 -7.863281 2.21875 -7.40625 L 1.796875 -8.453125 C 2.242188 -8.691406 2.734375 -8.878906 3.265625 -9.015625 C 3.796875 -9.160156 4.332031 -9.234375 4.875 -9.234375 C 5.957031 -9.234375 6.757812 -8.988281 7.28125 -8.5 C 7.800781 -8.019531 8.0625 -7.253906 8.0625 -6.203125 L 8.0625 0 Z M 3.9375 -0.96875 C 4.789062 -0.96875 5.460938 -1.203125 5.953125 -1.671875 C 6.441406 -2.140625 6.6875 -2.796875 6.6875 -3.640625 L 6.6875 -4.46875 L 5.3125 -4.40625 C 4.21875 -4.363281 3.425781 -4.191406 2.9375 -3.890625 C 2.457031 -3.597656 2.21875 -3.132812 2.21875 -2.5 C 2.21875 -2 2.367188 -1.617188 2.671875 -1.359375 C 2.972656 -1.097656 3.394531 -0.96875 3.9375 -0.96875 Z M 3.9375 -0.96875 "/></g></g></g><g fill="#000000" fill-opacity="1"><g transform="translate(197.00807, 277.12439)"><g><path d="M 4.390625 -0.96875 C 4.628906 -0.96875 4.863281 -0.984375 5.09375 -1.015625 C 5.320312 -1.054688 5.503906 -1.097656 5.640625 -1.140625 L 5.640625 -0.078125 C 5.484375 -0.00390625 5.257812 0.0507812 4.96875 0.09375 C 4.6875 0.144531 4.425781 0.171875 4.1875 0.171875 C 2.4375 0.171875 1.5625 -0.753906 1.5625 -2.609375 L 1.5625 -8.015625 L 0.25 -8.015625 L 0.25 -8.671875 L 1.5625 -9.25 L 2.140625 -11.1875 L 2.9375 -11.1875 L 2.9375 -9.078125 L 5.5625 -9.078125 L 5.5625 -8.015625 L 2.9375 -8.015625 L 2.9375 -2.671875 C 2.9375 -2.117188 3.066406 -1.695312 3.328125 -1.40625 C 3.585938 -1.113281 3.941406 -0.96875 4.390625 -0.96875 Z M 4.390625 -0.96875 "/></g></g></g><g fill="#000000" fill-opacity="1"><g transform="translate(203.000003, 277.12439)"><g><path d="M 9.296875 -4.546875 C 9.296875 -3.066406 8.921875 -1.910156 8.171875 -1.078125 C 7.429688 -0.242188 6.40625 0.171875 5.09375 0.171875 C 4.28125 0.171875 3.554688 -0.0195312 2.921875 -0.40625 C 2.296875 -0.789062 1.8125 -1.335938 1.46875 -2.046875 C 1.125 -2.753906 0.953125 -3.585938 0.953125 -4.546875 C 0.953125 -6.023438 1.320312 -7.175781 2.0625 -8 C 2.800781 -8.832031 3.828125 -9.25 5.140625 -9.25 C 6.410156 -9.25 7.421875 -8.828125 8.171875 -7.984375 C 8.921875 -7.140625 9.296875 -5.992188 9.296875 -4.546875 Z M 2.375 -4.546875 C 2.375 -3.390625 2.601562 -2.503906 3.0625 -1.890625 C 3.53125 -1.285156 4.21875 -0.984375 5.125 -0.984375 C 6.019531 -0.984375 6.703125 -1.285156 7.171875 -1.890625 C 7.640625 -2.492188 7.875 -3.378906 7.875 -4.546875 C 7.875 -5.703125 7.640625 -6.578125 7.171875 -7.171875 C 6.703125 -7.773438 6.015625 -8.078125 5.109375 -8.078125 C 4.203125 -8.078125 3.519531 -7.78125 3.0625 -7.1875 C 2.601562 -6.601562 2.375 -5.722656 2.375 -4.546875 Z M 2.375 -4.546875 "/></g></g></g><g fill="#000000" fill-opacity="1"><g transform="translate(213.25176, 277.12439)"><g><path d="M 5.59375 -9.25 C 6 -9.25 6.363281 -9.210938 6.6875 -9.140625 L 6.5 -7.875 C 6.125 -7.957031 5.789062 -8 5.5 -8 C 4.769531 -8 4.140625 -7.695312 3.609375 -7.09375 C 3.085938 -6.5 2.828125 -5.757812 2.828125 -4.875 L 2.828125 0 L 1.453125 0 L 1.453125 -9.078125 L 2.59375 -9.078125 L 2.75 -7.40625 L 2.8125 -7.40625 C 3.15625 -7.988281 3.5625 -8.441406 4.03125 -8.765625 C 4.507812 -9.085938 5.03125 -9.25 5.59375 -9.25 Z M 5.59375 -9.25 "/></g></g></g><g fill="#000000" fill-opacity="1"><g transform="translate(220.180187, 277.12439)"><g><path d="M 0.015625 -9.078125 L 1.484375 -9.078125 L 3.484375 -3.90625 C 3.921875 -2.71875 4.191406 -1.863281 4.296875 -1.34375 L 4.359375 -1.34375 C 4.429688 -1.625 4.582031 -2.101562 4.8125 -2.78125 C 5.039062 -3.46875 5.789062 -5.566406 7.0625 -9.078125 L 8.53125 -9.078125 L 4.625 1.265625 C 4.238281 2.285156 3.785156 3.007812 3.265625 3.4375 C 2.753906 3.863281 2.125 4.078125 1.375 4.078125 C 0.957031 4.078125 0.539062 4.03125 0.125 3.9375 L 0.125 2.828125 C 0.4375 2.898438 0.78125 2.9375 1.15625 2.9375 C 2.09375 2.9375 2.765625 2.40625 3.171875 1.34375 L 3.671875 0.046875 Z M 0.015625 -9.078125 "/></g></g></g></svg>