<?xml version="1.0" encoding="utf-8"?>
<!-- Generator: Adobe Illustrator 16.0.0, SVG Export Plug-In . SVG Version: 6.00 Build 0)  -->
<!DOCTYPE svg PUBLIC "-//W3C//DTD SVG 1.0//EN" "http://www.w3.org/TR/2001/REC-SVG-20010904/DTD/svg10.dtd">
<svg version="1.0" id="Layer_1" xmlns="http://www.w3.org/2000/svg" xmlns:xlink="http://www.w3.org/1999/xlink" x="0px" y="0px"
	 width="100px" height="100px" viewBox="0 0 100 100" enable-background="new 0 0 100 100" xml:space="preserve">
<rect x="10" y="46.364" fill="#263238" width="10.909" height="7.271"/>
<rect x="28.182" y="46.364" fill="#8BC34A" width="10.909" height="7.271"/>
<rect x="46.364" y="46.364" fill="#263238" width="7.272" height="7.271"/>
<rect x="60.908" y="46.364" fill="#8BC34A" width="10.909" height="7.271"/>
<rect x="79.091" y="46.364" fill="#263238" width="10.908" height="7.271"/>
<rect x="46.364" y="79.091" fill="#263238" width="7.272" height="10.908"/>
<rect x="46.364" y="60.908" fill="#8BC34A" width="7.272" height="10.909"/>
<rect x="46.364" y="28.182" fill="#8BC34A" width="7.272" height="10.908"/>
<rect x="46.364" y="10" fill="#263238" width="7.272" height="10.909"/>
<rect x="78.117" y="79.926" transform="matrix(0.707 0.7072 -0.7072 0.707 83.5803 -34.6196)" fill="#8BC34A" width="10.91" height="7.273"/>
<rect x="65.263" y="67.079" transform="matrix(0.7071 0.7071 -0.7071 0.7071 70.7151 -29.2926)" fill="#263238" width="10.908" height="7.271"/>
<rect x="23.827" y="25.643" transform="matrix(0.7073 0.707 -0.707 0.7073 29.2714 -12.13)" fill="#263238" width="10.91" height="7.274"/>
<rect x="10.974" y="12.791" transform="matrix(0.7071 0.7071 -0.7071 0.7071 16.427 -6.805)" fill="#8BC34A" width="10.908" height="7.273"/>
<rect x="78.109" y="12.794" transform="matrix(0.7073 -0.7069 0.7069 0.7073 12.8442 63.8815)" fill="#8BC34A" width="10.911" height="7.272"/>
<rect x="65.261" y="25.647" transform="matrix(0.7071 -0.7071 0.7071 0.7071 0.0072 58.5817)" fill="#263238" width="10.908" height="7.271"/>
<rect x="23.83" y="67.079" transform="matrix(0.7071 -0.7071 0.7071 0.7071 -41.4263 41.4208)" fill="#263238" width="10.912" height="7.275"/>
<rect x="10.975" y="79.936" transform="matrix(0.7071 -0.7071 0.7071 0.7071 -54.2843 36.0965)" fill="#8BC34A" width="10.907" height="7.272"/>
</svg>
